<?xml version="1.0" encoding="UTF-8"?>
<svg width="45px" height="45px" viewBox="0 0 45 45" version="1.1" xmlns="http://www.w3.org/2000/svg" xmlns:xlink="http://www.w3.org/1999/xlink">
    <title>close</title>
    <g id="Design-v3" stroke="none" stroke-width="1" fill="none" fill-rule="evenodd">
        <g id="Saffola-Masala-Oats_Landing-Page_Desktop_v3.1" transform="translate(-456.000000, -3688.000000)">
            <g id="recipes" transform="translate(0.000000, 2918.000000)">
                <g id="1" transform="translate(140.000000, 305.000000)">
                    <g id="close" transform="translate(316.000000, 465.000000)">
                        <path d="M0,0 L45,0 L45,35 C45,40.5228475 40.5228475,45 35,45 L0,45 L0,45 L0,0 Z" id="Mask" fill="#DB0812"></path>
                        <path d="M24.4658394,23.0001186 L30.6959178,16.7697211 C31.1013607,16.3644596 31.1013607,15.7092077 30.6959178,15.3039461 C30.2906647,14.8986846 29.6354264,14.8986846 29.2301733,15.3039461 L22.9999051,21.5343437 L16.7698267,15.3039461 C16.3643838,14.8986846 15.7093353,14.8986846 15.3040822,15.3039461 C14.8986393,15.7092077 14.8986393,16.3644596 15.3040822,16.7697211 L21.5341606,23.0001186 L15.3040822,29.2305162 C14.8986393,29.6357777 14.8986393,30.2910296 15.3040822,30.6962911 C15.5060444,30.8984473 15.7715943,31 16.0369545,31 C16.3023146,31 16.5676747,30.8984473 16.7698267,30.6962911 L22.9999051,24.4658936 L29.2301733,30.6962911 C29.4323253,30.8984473 29.6976854,31 29.9630456,31 C30.2284057,31 30.4937658,30.8984473 30.6959178,30.6962911 C31.1013607,30.2910296 31.1013607,29.6357777 30.6959178,29.2305162 L24.4658394,23.0001186 Z" id="Path" fill="#FCC517" fill-rule="nonzero"></path>
                    </g>
                </g>
            </g>
        </g>
    </g>
</svg>