<?xml version="1.0" encoding="UTF-8"?>
<svg width="17px" height="30px" viewBox="0 0 17 30" version="1.1" xmlns="http://www.w3.org/2000/svg" xmlns:xlink="http://www.w3.org/1999/xlink">
    <title>Path</title>
    <g id="Design-v3" stroke="none" stroke-width="1" fill="none" fill-rule="evenodd">
        <g id="Saffola-Masala-Oats_Landing-Page_Mobile_v3" transform="translate(-322.000000, -4395.000000)" fill="#DB0812" fill-rule="nonzero">
            <g id="up-arrow" transform="translate(300.000000, 4380.000000)">
                <path d="M44.6225657,29.0866447 L37.8950452,22.3757377 C37.3911345,21.8730923 36.5760851,21.8749633 36.0744915,22.3801248 C35.5729622,22.8852219 35.5748931,23.7021901 36.0788039,24.2049 L40.5948842,28.7096768 L17.2872927,28.7096768 C16.576321,28.7096768 16,29.2873545 16,30 C16,30.7126456 16.576321,31.2903234 17.2872927,31.2903234 L40.5948199,31.2903234 L36.0788682,35.7951001 C35.5749575,36.2978101 35.5730266,37.1147783 36.0745558,37.6198753 C36.5761494,38.1251014 37.3912632,38.1268434 37.8951096,37.6242624 L44.6214715,30.9145812 C45.1267983,30.408968 45.1251892,29.5893547 44.6225657,29.0866447 Z" id="Path" transform="translate(30.500000, 30.000000) rotate(-90.000000) translate(-30.500000, -30.000000) "></path>
            </g>
        </g>
    </g>
</svg>