<?xml version="1.0" encoding="UTF-8"?>
<svg width="45px" height="45px" viewBox="0 0 45 45" version="1.1" xmlns="http://www.w3.org/2000/svg" xmlns:xlink="http://www.w3.org/1999/xlink">
    <title>up arrow</title>
    <g id="Design-v3" stroke="none" stroke-width="1" fill="none" fill-rule="evenodd">
        <g id="Saffola-Masala-Oats_Landing-Page_Desktop_v3.1" transform="translate(-1256.000000, -3688.000000)">
            <g id="recipes" transform="translate(0.000000, 2918.000000)">
                <g id="3" transform="translate(940.000000, 304.000000)">
                    <g id="up-arrow" transform="translate(316.000000, 466.000000)">
                        <path d="M0,0 L45,0 L45,35 C45,40.5228475 40.5228475,45 35,45 L0,45 L0,45 L0,0 Z" id="Mask-Copy" fill="#DB0812"></path>
                        <path d="M32.2187506,21.193548 L15.6735285,21.193548 L18.4143077,18.3780625 C18.7201278,18.0638688 18.7212996,17.5532637 18.4169249,17.237578 C18.1125501,16.921852 17.617863,16.9206827 17.3120429,17.2348361 L13.2298584,21.4283868 C13.229585,21.4286288 13.2293896,21.428911 13.2291553,21.429153 C12.9241164,21.7433467 12.9231399,22.255605 13.2290771,22.5708471 C13.2293506,22.5710891 13.2295459,22.5713713 13.2297803,22.5716133 L17.3119647,26.765164 C17.6177458,27.0792771 18.1124329,27.0781884 18.4168467,26.7624221 C18.7212215,26.4467364 18.7200496,25.9361313 18.4142296,25.6219376 L15.6735285,22.8064521 L32.2187506,22.8064521 C32.6502346,22.8064521 33,22.4454035 33,22 C33,21.5545966 32.6502346,21.193548 32.2187506,21.193548 Z" id="Path-Copy" fill="#FCC517" fill-rule="nonzero" transform="translate(23.000000, 22.000000) scale(1, -1) rotate(-450.000000) translate(-23.000000, -22.000000) "></path>
                    </g>
                </g>
            </g>
        </g>
    </g>
</svg>