<svg width="1536" height="13" viewBox="0 0 1536 13" fill="none" xmlns="http://www.w3.org/2000/svg">
<path fill-rule="evenodd" clip-rule="evenodd" d="M21.3333 0L42.6667 13H0L21.3333 0ZM192 0L213.333 13H170.667L192 0ZM106.667 0L128 13H85.3333L106.667 0ZM277.333 0L298.667 13H256L277.333 0ZM64 0L85.3333 13H42.6667L64 0ZM234.667 0L256 13H213.333L234.667 0ZM149.333 0L170.667 13H128L149.333 0ZM320 0L341.333 13H298.667L320 0ZM704 0L725.333 13H682.667L704 0ZM874.667 0L896 13H853.333L874.667 0ZM789.333 0L810.667 13H768L789.333 0ZM960 0L981.333 13H938.667L960 0ZM746.667 0L768 13H725.333L746.667 0ZM917.333 0L938.667 13H896L917.333 0ZM832 0L853.333 13H810.667L832 0ZM1002.67 0L1024 13H981.333L1002.67 0ZM362.667 0L384 13H341.333L362.667 0ZM533.333 0L554.667 13H512L533.333 0ZM448 0L469.333 13H426.667L448 0ZM618.667 0L640 13H597.333L618.667 0ZM405.333 0L426.667 13H384L405.333 0ZM576 0L597.333 13H554.667L576 0ZM490.667 0L512 13H469.333L490.667 0ZM661.333 0L682.667 13H640L661.333 0ZM1045.33 0L1066.67 13H1024L1045.33 0ZM1216 0L1237.33 13H1194.67L1216 0ZM1429.33 0L1450.67 13H1408L1429.33 0ZM1130.67 0L1152 13H1109.33L1130.67 0ZM1301.33 0L1322.67 13H1280L1301.33 0ZM1514.67 0L1536 13H1493.33L1514.67 0ZM1088 0L1109.33 13H1066.67L1088 0ZM1258.67 0L1280 13H1237.33L1258.67 0ZM1472 0L1493.33 13H1450.67L1472 0ZM1173.33 0L1194.67 13H1152L1173.33 0ZM1386.67 0L1408 13H1365.33L1386.67 0ZM1344 0L1365.33 13H1322.67L1344 0Z" fill="#FFF1BE"/>
</svg>
