<?xml version="1.0" encoding="UTF-8"?>
<svg width="47px" height="47px" viewBox="0 0 47 47" version="1.1" xmlns="http://www.w3.org/2000/svg" xmlns:xlink="http://www.w3.org/1999/xlink">
    <title>up arrow</title>
    <g id="Design-v3" stroke="none" stroke-width="1" fill="none" fill-rule="evenodd">
        <g id="ipad-1" transform="translate(-340.000000, -4384.000000)">
            <g id="recipes" transform="translate(-255.000000, 3634.000000)">
                <g id="1" transform="translate(281.000000, 285.000000)">
                    <g id="up-arrow" transform="translate(314.734375, 465.765625)">
                        <path d="M0.265625,0.234375 L45.265625,0.234375 L45.265625,35.234375 C45.265625,40.7572225 40.7884725,45.234375 35.265625,45.234375 L0.265625,45.234375 L0.265625,45.234375 L0.265625,0.234375 Z" id="Mask" fill="#DB0812"></path>
                        <path d="M32.4843756,21.427923 L15.9391535,21.427923 L18.6799327,18.6124375 C18.9857528,18.2982438 18.9869246,17.7876387 18.6825499,17.471953 C18.3781751,17.156227 17.883488,17.1550577 17.5776679,17.4692111 L13.4954834,21.6627618 C13.49521,21.6630038 13.4950146,21.663286 13.4947803,21.663528 C13.1897414,21.9777217 13.1887649,22.48998 13.4947021,22.8052221 C13.4949756,22.8054641 13.4951709,22.8057463 13.4954053,22.8059883 L17.5775897,26.999539 C17.8833708,27.3136521 18.3780579,27.3125634 18.6824717,26.9967971 C18.9868465,26.6811114 18.9856746,26.1705063 18.6798546,25.8563126 L15.9391535,23.0408271 L32.4843756,23.0408271 C32.9158596,23.0408271 33.265625,22.6797785 33.265625,22.234375 C33.265625,21.7889716 32.9158596,21.427923 32.4843756,21.427923 Z" id="Path" fill="#FCC517" fill-rule="nonzero" transform="translate(23.265625, 22.234375) scale(1, -1) rotate(-450.000000) translate(-23.265625, -22.234375) "></path>
                    </g>
                </g>
            </g>
        </g>
    </g>
</svg>